# xmcd
#
# Track frame offsets:
#	150
#	20841
#	40477
#	57105
#	75657
#	87280
#	111512
#	123015
#	143816
#	164810
#	180362
#
# Disc length: 2564 seconds
#
# Revision: 1
# Processed by: cddbd v1.5.2PL0 Copyright (c) Steve Scherf et al.
# Submitted via: audiograbber 1.82.02
#
DISCID=920a020b
DTITLE=Thad Beckmann - Carry Me Back
DYEAR=1998
DGENRE=Blues
TTITLE0=Dust Bowl Madonna
TTITLE1=Freedom Slowly Sets On America
TTITLE2=Song For JFK
TTITLE3=When The Sun Goes Down
TTITLE4=Well Bottom Blues
TTITLE5=Where Do I Belong
TTITLE6=You're Just So Appealin'
TTITLE7=Pretty Senorita
TTITLE8=Carry Me Back
TTITLE9=Headin' On Down The Road Awhile
TTITLE10=Instrumental
EXTD=
EXTT0=
EXTT1=
EXTT2=
EXTT3=
EXTT4=
EXTT5=
EXTT6=
EXTT7=
EXTT8=
EXTT9=
EXTT10=
PLAYORDER=
